<svg width="16" height="19" viewBox="0 0 16 19" fill="none" xmlns="http://www.w3.org/2000/svg">
<path d="M12.9753 8.85232C13.0794 8.75802 13.137 8.63173 13.1357 8.50063C13.1344 8.36954 13.0743 8.24414 12.9683 8.15144C12.8624 8.05874 12.7191 8.00616 12.5692 8.00502C12.4194 8.00388 12.275 8.05428 12.1672 8.14535L7.9995 11.7917L6.11765 10.1452C6.00987 10.0542 5.86551 10.0038 5.71568 10.0049C5.56584 10.0061 5.42251 10.0586 5.31655 10.1513C5.21059 10.244 5.15049 10.3694 5.14919 10.5005C5.14789 10.6316 5.20549 10.7579 5.30959 10.8522L7.9995 13.2056L12.9753 8.85232Z" fill="#49A05C"/>
<path fill-rule="evenodd" clip-rule="evenodd" d="M15.9999 4.99974V15.4992C15.9999 15.897 15.8193 16.2785 15.4978 16.5598C15.1763 16.8411 14.7402 16.9991 14.2855 16.9991H3.99905C3.54436 16.9991 3.10829 16.8411 2.78678 16.5598C2.46526 16.2785 2.28464 15.897 2.28464 15.4992V1.49992C2.28464 1.10212 2.46526 0.720606 2.78678 0.439317C3.10829 0.158027 3.54436 0 3.99905 0H10.2852L15.9999 4.99974ZM10.2852 5.49971C10.1337 5.49971 9.98831 5.44703 9.88114 5.35327C9.77397 5.25951 9.71376 5.13234 9.71376 4.99974V0.999947H3.99905C3.84749 0.999947 3.70213 1.05262 3.59496 1.14639C3.48779 1.24015 3.42758 1.36732 3.42758 1.49992V15.4992C3.42758 15.6318 3.48779 15.759 3.59496 15.8527C3.70213 15.9465 3.84749 15.9992 3.99905 15.9992H14.2855C14.4371 15.9992 14.5824 15.9465 14.6896 15.8527C14.7968 15.759 14.857 15.6318 14.857 15.4992V5.49971H10.2852ZM10.8567 1.9139L13.8123 4.49976H10.8567V1.9139Z" fill="#49A05C"/>
<path d="M1.14294 3.00165V16.5009C1.14294 16.8987 1.32357 17.2802 1.64508 17.5615C1.9666 17.8428 2.40266 18.0009 2.85735 18.0009H13.7153V19.0008H2.85735C2.09954 19.0008 1.37276 18.7374 0.8369 18.2686C0.301042 17.7998 0 17.1639 0 16.5009V3.00165H1.14294Z" fill="#49A05C"/>
</svg>
