<svg width="16" height="16" viewBox="0 0 16 16" fill="none" xmlns="http://www.w3.org/2000/svg">
<path d="M15.6689 7.86891L8.3992 0.175224C8.34686 0.119678 8.28468 0.0756107 8.21624 0.0455436C8.1478 0.0154765 8.07443 0 8.00033 0C7.92623 0 7.85286 0.0154765 7.78442 0.0455436C7.71598 0.0756107 7.6538 0.119678 7.60146 0.175224L0.331803 7.86891C0.120014 8.09322 0 8.3979 0 8.71567C0 9.3755 0.506529 9.91197 1.12954 9.91197H1.89551V15.4019C1.89551 15.7327 2.14789 16 2.46028 16H6.87079V11.813H8.84749V16H13.5404C13.8528 16 14.1052 15.7327 14.1052 15.4019V9.91197H14.8711C15.1712 9.91197 15.4588 9.78673 15.6706 9.56055C16.1101 9.09325 16.1101 8.33622 15.6689 7.86891Z" fill="#49A05C"/>
</svg>
