<svg width="16" height="16" viewBox="0 0 16 16" fill="none" xmlns="http://www.w3.org/2000/svg">
<path d="M13.8958 10.5304V4.7976C13.8916 3.5128 12.9894 1.6 10.5208 1.6V0L7.15413 2.4L10.5208 4.8V3.2C12.0602 3.2 12.2049 4.4312 12.2125 4.8V10.5304C11.0005 10.8776 10.1084 11.936 10.1084 13.2C10.1084 14.744 11.4298 16 13.0542 16C14.6786 16 16 14.744 16 13.2C16 11.936 15.1078 10.8776 13.8958 10.5304ZM13.0542 14.4C12.3581 14.4 11.7917 13.8616 11.7917 13.2C11.7917 12.5384 12.3581 12 13.0542 12C13.7502 12 14.3167 12.5384 14.3167 13.2C14.3167 13.8616 13.7502 14.4 13.0542 14.4ZM5.89164 2.8C5.89164 1.256 4.57023 0 2.94582 0C1.32141 0 0 1.256 0 2.8C0 4.064 0.892162 5.1224 2.10416 5.4696V10.5304C0.892162 10.8776 0 11.936 0 13.2C0 14.744 1.32141 16 2.94582 16C4.57023 16 5.89164 14.744 5.89164 13.2C5.89164 11.936 4.99947 10.8776 3.78748 10.5304V5.4696C4.99947 5.1224 5.89164 4.064 5.89164 2.8ZM1.68332 2.8C1.68332 2.1384 2.24976 1.6 2.94582 1.6C3.64187 1.6 4.20831 2.1384 4.20831 2.8C4.20831 3.4616 3.64187 4 2.94582 4C2.24976 4 1.68332 3.4616 1.68332 2.8ZM4.20831 13.2C4.20831 13.8616 3.64187 14.4 2.94582 14.4C2.24976 14.4 1.68332 13.8616 1.68332 13.2C1.68332 12.5384 2.24976 12 2.94582 12C3.64187 12 4.20831 12.5384 4.20831 13.2Z" fill="#49A05C"/>
</svg>
