<svg width="16" height="16" viewBox="0 0 16 16" fill="none" xmlns="http://www.w3.org/2000/svg">
<path d="M14.4 0H4.80001C3.91761 0 3.20001 0.7176 3.20001 1.6V11.2C3.20001 12.0824 3.91761 12.8 4.80001 12.8H14.4C15.2824 12.8 16 12.0824 16 11.2V1.6C16 0.7176 15.2824 0 14.4 0ZM4.80001 11.2V1.6H14.4L14.4016 11.2H4.80001Z" fill="#49A05C"/>
<path d="M1.6 4.80001H0V14.4C0 15.2824 0.7176 16 1.6 16H11.2V14.4H1.6V4.80001ZM10.4 3.20001H8.8V5.60001H6.4V7.20001H8.8V9.60001H10.4V7.20001H12.8V5.60001H10.4V3.20001Z" fill="#49A05C"/>
</svg>
